<svg width="1151" height="411" viewBox="0 0 1151 411" fill="none" xmlns="http://www.w3.org/2000/svg">
<g clip-path="url(#clip0)">
<path d="M23.872 130.679C28.5647 125.335 33.271 119.925 37.9841 114.443C42.6564 109.014 47.2605 103.61 51.7965 98.2267H52.0621L87.4581 57.0999C87.4581 57.0999 85.0062 86.7357 92.2053 98.2925C140.133 98.3715 188.061 98.4505 235.989 98.5229C226.018 109.244 216.047 119.958 206.076 130.679H23.872ZM231.569 332.608C169.965 332.608 108.361 332.608 46.7565 332.608C56.6663 321.749 66.5761 310.89 76.4859 300.031H258.267L258.009 300.347H299.33C299.555 298.313 299.998 296.339 299.998 294.252V115.753C299.998 109.25 298.601 103.104 296.558 97.2264C286.778 108.375 276.99 119.531 267.21 130.679C231.508 172.116 195.805 213.552 160.109 254.988C181.462 254.837 202.814 254.692 224.159 254.54V230.025C230.397 239.252 239.095 250.184 251.164 261.55C261.183 270.981 271.297 278.615 280.348 284.643H242.099C190.506 285.111 138.921 285.571 87.3355 286.039L249.618 97.2724L249.679 97.3514C258.124 87.6966 266.57 78.0483 275.015 68.3935C263.818 60.1405 249.829 55.007 234.402 55.007H65.5885C29.3616 55.007 0 82.2011 0 115.753V141.427H197.61C144.506 203.436 91.3948 265.439 38.2906 327.449C34.027 332.306 29.777 337.163 25.5134 342.026C36.6288 350.036 50.4207 354.998 65.5885 354.998H234.402C254.991 354.998 273.129 346.041 285.157 332.299H231.828" fill="black"/>
<path d="M128.541 173.214C100.154 173.346 71.7659 173.477 43.3715 173.609C43.317 173.53 43.2693 173.451 43.208 173.379H0V294.252C0 301.294 1.54606 307.948 3.92986 314.246C11.2583 306.315 18.5936 298.385 25.9221 290.454C60.1262 251.374 94.3371 212.294 128.541 173.214Z" fill="black"/>
<path d="M389 112.2V156.2H361.4V165.4H389V212.2L358.4 221.2L361.4 230.8L389 222V280.8C389 283.8 387.8 284.6 385.4 284.6C383 284.8 374.8 284.8 365.2 284.4C366.6 287.4 367.8 291.4 368.4 293.8C381 293.8 388 293.6 392.2 292C396.6 290.4 398.4 287.4 398.4 280.8V219L423.2 211.2L421.8 201.8L398.4 209.2V165.4H420.4V156.2H398.4V112.2H389ZM458.8 111.8C459.2 128 459.4 143 459.2 156.8H425.8V166H459C458.6 182.4 457.6 197.2 455.4 210.6C447.8 206.2 440.4 202 433.6 198.4L428.2 204.8C436.2 209.2 445 214.2 453.6 219.4C447 249.4 433.2 271 405.8 286C408 288 411.6 292.2 412.8 294C440.4 277 454.6 255 461.8 224.6C474.4 232.6 485.8 240.4 493.4 246.6L499 238.8C490.6 232.4 477.6 223.8 463.8 215.6C466.4 200.8 467.8 184.4 468.4 166H504.8C504.2 247.2 502.6 293.6 526.2 293.6C536.6 293.6 540.4 286.2 541.6 261C539.2 260 535.6 258.4 533.2 256.4C532.6 277.8 531 284.2 526.8 284.2C513 284.2 513.6 243.2 514.8 156.8H468.6C468.8 143 468.8 128 468.6 111.8H458.8ZM641.8 169.6H678.2V200.4H641.8V169.6ZM687.2 169.6H724V200.4H687.2V169.6ZM641.8 130.6H678.2V161.2H641.8V130.6ZM687.2 130.6H724V161.2H687.2V130.6ZM613.2 278V287H743.4V278H687.6V245.4H736.6V236.4H687.6V209.2H733.6V121.8H632.6V209.2H677.8V236.4H629.6V245.4H677.8V278H613.2ZM559.4 261.8L562 271.8C578.8 266 601 258.4 622.4 251.2L620.8 241.8L597.4 249.8V194.2H618.8V184.8H597.4V136.2H621.4V126.8H561.4V136.2H587.8V184.8H563.6V194.2H587.8V252.8L559.4 261.8ZM760 243.8L761.6 253L803.8 247.8V282C803.8 284.4 803.2 285 800.4 285.2C797.6 285.2 789.2 285.4 778 285C779.6 287.8 781 291.4 781.4 293.8C794.4 293.8 802.6 293.8 807.2 292.2C811.8 290.8 813 288 813 282.2V246.8L858.4 241.2V232.4L813 237.8V225.2C824.8 218 837.8 207.4 846.8 197.2L840.6 193L838.8 193.6H812.4C817.6 188 822.6 182 827.4 175.8H856.6V167H833.8C843.6 152.6 852 136.6 859 119.2L849.8 116.6C842.8 135 833.6 152 822.6 167H806.8V143.6H834.8V134.6H806.8V112H797.4V134.6H768.8V143.6H797.4V167H760V175.8H815.6C810.6 182.2 805 188 799.2 193.6H776.2V202H789.8C780.4 209.8 770.2 216.8 759.4 222.6C761.8 224.4 765.4 228.2 767 230C780.2 222 792.6 212.6 804 202H830.4C822.8 209.4 812.8 217 803.8 222.2V239L760 243.8ZM877 159H918.6C914.2 187.8 907.6 212 897.2 231.8C887.6 211 881 186.2 876.8 159.8L877 159ZM879 112.2C872.8 146 862 178.8 846.2 200C848.6 201.4 852.8 204.6 854.6 206.2C860.6 197.6 866 187.4 870.6 176C875.6 200.6 882.2 222.8 891.4 241.8C879.4 260.6 863.2 275 841 285.8C843 287.8 846 292 847.2 294.2C868.2 283.2 884.2 269.2 896.4 251.4C906.8 269.8 919.8 284.4 936.2 294C937.8 291.4 941 287.8 943.4 286C926.2 276.8 912.8 261.6 902.4 242.2C915.2 220 923.4 192.8 928.6 159H942.2V149.8H880C883.4 138.4 886.4 126.2 888.8 113.8L879 112.2ZM1101.2 203.4V222.6H1002.6V203.4H1101.2ZM993 194.6V294H1002.6V258H1101.2V280.8C1101.2 284.2 1100 285.2 1096 285.4C1092.2 285.8 1078.2 285.8 1061.8 285.2C1063.4 287.8 1064.8 291.4 1065.4 293.6C1085.2 293.6 1096.8 293.8 1102.8 292.4C1108.8 290.8 1110.8 287.8 1110.8 280.8V194.6H993ZM1002.6 230.6H1101.2V250H1002.6V230.6ZM1039.2 114.2C1043 120.2 1047.2 127.4 1050.4 133.6H964V142.8H1023.2C1011.4 154.2 998.6 164 994.2 167C989.2 170.6 985 172.8 981.6 173.2C982.8 176 984.4 181.2 984.8 183.6C990.4 181.4 999.2 181 1104.2 174.8C1111 180.6 1117 186 1121.4 190.2L1129 184C1117.6 173.6 1095.8 155.8 1079 143.4L1071.8 148.2C1079 153.8 1087 160.2 1094.8 166.8L1002 171.8C1013.8 164 1025.8 153.8 1037.4 142.8H1138.8V133.6H1062C1058.4 127.2 1053 118.2 1048.6 111.4L1039.2 114.2Z" fill="black"/>
</g>
<defs>
<clipPath id="clip0">
<rect width="1151" height="411" fill="white"/>
</clipPath>
</defs>
</svg>
